<svg id="visual" viewBox="0 0 600 900" width="600" height="900" xmlns="http://www.w3.org/2000/svg" xmlns:xlink="http://www.w3.org/1999/xlink" version="1.1"><rect x="0" y="0" width="600" height="900" fill="#fff"></rect><defs><linearGradient id="grad1_0" x1="0%" y1="0%" x2="100%" y2="100%"><stop offset="30%" stop-color="#386922" stop-opacity="1"></stop><stop offset="70%" stop-color="#386922" stop-opacity="1"></stop></linearGradient></defs><defs><linearGradient id="grad1_1" x1="0%" y1="0%" x2="100%" y2="100%"><stop offset="30%" stop-color="#386922" stop-opacity="1"></stop><stop offset="70%" stop-color="#9ab28c" stop-opacity="1"></stop></linearGradient></defs><defs><linearGradient id="grad1_2" x1="0%" y1="0%" x2="100%" y2="100%"><stop offset="30%" stop-color="#ffffff" stop-opacity="1"></stop><stop offset="70%" stop-color="#9ab28c" stop-opacity="1"></stop></linearGradient></defs><defs><linearGradient id="grad2_0" x1="0%" y1="0%" x2="100%" y2="100%"><stop offset="30%" stop-color="#386922" stop-opacity="1"></stop><stop offset="70%" stop-color="#386922" stop-opacity="1"></stop></linearGradient></defs><defs><linearGradient id="grad2_1" x1="0%" y1="0%" x2="100%" y2="100%"><stop offset="30%" stop-color="#9ab28c" stop-opacity="1"></stop><stop offset="70%" stop-color="#386922" stop-opacity="1"></stop></linearGradient></defs><defs><linearGradient id="grad2_2" x1="0%" y1="0%" x2="100%" y2="100%"><stop offset="30%" stop-color="#9ab28c" stop-opacity="1"></stop><stop offset="70%" stop-color="#ffffff" stop-opacity="1"></stop></linearGradient></defs><g transform="translate(600, 0)"><path d="M0 459.7C-29.3 452.5 -58.6 445.3 -87 437.4C-115.4 429.6 -142.8 421.2 -171.1 413C-199.3 404.8 -228.4 396.7 -255.4 382.2C-282.4 367.7 -307.2 346.8 -318.9 318.9C-330.6 291 -329.3 256.2 -348.4 232.8C-367.5 209.4 -407.2 197.5 -419.4 173.7C-431.7 149.9 -416.6 114.2 -418.8 83.3C-420.9 52.4 -440.3 26.2 -459.7 0L0 0Z" fill="#ccd8c4"></path><path d="M0 306.5C-19.5 301.7 -39.1 296.8 -58 291.6C-76.9 286.4 -95.2 280.8 -114 275.3C-132.9 269.8 -152.3 264.5 -170.3 254.8C-188.2 245.2 -204.8 231.2 -212.6 212.6C-220.4 194 -219.5 170.8 -232.3 155.2C-245 139.6 -271.4 131.7 -279.6 115.8C-287.8 100 -277.8 76.2 -279.2 55.5C-280.6 34.9 -293.6 17.5 -306.5 0L0 0Z" fill="#698d56"></path><path d="M0 153.2C-9.8 150.8 -19.5 148.4 -29 145.8C-38.5 143.2 -47.6 140.4 -57 137.7C-66.4 134.9 -76.1 132.2 -85.1 127.4C-94.1 122.6 -102.4 115.6 -106.3 106.3C-110.2 97 -109.8 85.4 -116.1 77.6C-122.5 69.8 -135.7 65.8 -139.8 57.9C-143.9 50 -138.9 38.1 -139.6 27.8C-140.3 17.5 -146.8 8.7 -153.2 0L0 0Z" fill="#386922"></path></g><g transform="translate(0, 900)"><path d="M0 -459.7C31.4 -460.4 62.8 -461.1 88.8 -446.3C114.7 -431.4 135.3 -401.1 159.2 -384.3C183.1 -367.5 210.4 -364.2 236.7 -354.2C262.9 -344.2 288.1 -327.4 306.9 -306.9C325.6 -286.4 337.9 -262 360.9 -241.1C383.8 -220.2 417.3 -202.6 424.7 -175.9C432.1 -149.2 413.4 -113.4 414.9 -82.5C416.3 -51.7 438 -25.8 459.7 0L0 0Z" fill="#ccd8c4"></path><path d="M0 -306.5C20.9 -306.9 41.9 -307.4 59.2 -297.5C76.5 -287.6 90.2 -267.4 106.1 -256.2C122.1 -245 140.3 -242.8 157.8 -236.1C175.3 -229.5 192.1 -218.3 204.6 -204.6C217.1 -190.9 225.3 -174.7 240.6 -160.7C255.9 -146.8 278.2 -135.1 283.1 -117.3C288.1 -99.5 275.6 -75.6 276.6 -55C277.6 -34.5 292 -17.2 306.5 0L0 0Z" fill="#698d56"></path><path d="M0 -153.2C10.5 -153.5 20.9 -153.7 29.6 -148.8C38.2 -143.8 45.1 -133.7 53.1 -128.1C61 -122.5 70.1 -121.4 78.9 -118.1C87.6 -114.7 96 -109.1 102.3 -102.3C108.5 -95.5 112.6 -87.3 120.3 -80.4C127.9 -73.4 139.1 -67.5 141.6 -58.6C144 -49.7 137.8 -37.8 138.3 -27.5C138.8 -17.2 146 -8.6 153.2 0L0 0Z" fill="#386922"></path></g></svg>